<?xml version="1.0" encoding="UTF-8" standalone="no"?><!DOCTYPE svg PUBLIC "-//W3C//DTD SVG 1.1//EN" "http://www.w3.org/Graphics/SVG/1.1/DTD/svg11.dtd"><svg width="100%" height="100%" viewBox="0 0 163 183" version="1.1" xmlns="http://www.w3.org/2000/svg" xmlns:xlink="http://www.w3.org/1999/xlink" xml:space="preserve" xmlns:serif="http://www.serif.com/" style="fill-rule:evenodd;clip-rule:evenodd;stroke-linejoin:round;stroke-miterlimit:2;"><path d="M85.503,34.702c4.948,10.496 14.55,36.509 22.041,55.482l-29.868,8.84l-12.937,-66.423l0.432,-1.057c0,0 2.724,-5.144 7.886,-5.52c4.281,-0.312 8.055,3.718 8.055,3.718l4.392,4.961Z" style="fill:#02a6ae;"/><path d="M64.738,32.6l12.937,66.423l-48.352,53.63l-1.779,0.556c0,0 -3.215,1.033 -6.066,-4.189c-2.378,-5.104 0.658,-12.259 0.658,-12.259l42.602,-104.162Z" style="fill:#ffb000;"/><path d="M29.323,152.653l48.352,-53.63l29.868,-8.84l0.031,0.079l42.132,17.587c0.561,1.055 0.961,2.205 0.855,3.238c-0.374,3.67 -3.436,4.721 -3.436,4.721l-117.803,36.845Z" style="fill:#0087ae;"/><path d="M149.707,107.85l-42.132,-17.587c-0.01,-0.026 -0.021,-0.053 -0.031,-0.079c-7.491,-18.972 -17.093,-44.985 -22.041,-55.482l61.624,69.616c0,0 1.558,1.607 2.581,3.532Z" style="fill:#d6f5f7;"/></svg>